PathFileType	4	(X/Y/Z)	/Users/niels/Desktop/University/Third Semester/Perception and Action/Exam/Gymnastics Motion Tracking/Code for Gym Tracking/Analyzed Data/Webcam_Backflip/id5_1_trajectory_Sports2D/id5_1_trajectory_Sports2D_px_person00.trc
DataRate	CameraRate	NumFrames	NumMarkers	Units	OrigDataRate	OrigDataStartFrame	OrigNumFrames
29.76190476190476	29.76190476190476	10	22	m	29.76190476190476	63	126
Frame#	Time	Hip			RHip			RKnee			RAnkle			RBigToe			RSmallToe			RHeel			LHip			LKnee			LAnkle			LBigToe			LSmallToe			LHeel			Neck			Head			Nose			RShoulder			RElbow			RWrist			LShoulder			LElbow			LWrist		
		X1	Y1	Z1	X2	Y2	Z2	X3	Y3	Z3	X4	Y4	Z4	X5	Y5	Z5	X6	Y6	Z6	X7	Y7	Z7	X8	Y8	Z8	X9	Y9	Z9	X10	Y10	Z10	X11	Y11	Z11	X12	Y12	Z12	X13	Y13	Z13	X14	Y14	Z14	X15	Y15	Z15	X16	Y16	Z16	X17	Y17	Z17	X18	Y18	Z18	X19	Y19	Z19	X20	Y20	Z20	X21	Y21	Z21	X22	Y22	Z22
63	2.1168000000000005	0.8188433654961208	-0.5712890493252245	0.0	0.775422455629504	-0.5783154171352634	0.0	0.7750880892937013	-0.7460418371625978	0.0	0.7814943001291829	-0.9038002940981793	0.0	0.7743136867934773	-0.9471656087313998	0.0	0.7556157199410675	-0.9407058977534253	0.0	0.7860721950268599	-0.9217652739452228	0.0	0.8631640467922383	-0.5709556383559969	0.0	0.9078515354534499	-0.7145203611733709	0.0	0.8975578939441915	-0.8907037111127641	0.0	0.9209082939542089	-0.9459474372753257	0.0	0.9392559563983924	-0.93698825012947	0.0	0.8857899891736755	-0.9120982143738131	0.0	0.7895242194415198	-0.30399533329382855	0.0	0.7773691280151549	-0.18811933898580915	0.0	0.7851324992676175	-0.25511582138140804	0.0	0.7166373463765575	-0.35732464065014363	0.0	0.6945623133164005	-0.4729535488650294	0.0	0.6836738057773636	-0.5719157294078188	0.0	0.8734869622465171	-0.3454510152494319	0.0	0.9015806507210578	-0.4623706673990431	0.0	0.9266786261755634	-0.5681133493044858	0.0
64	2.1504000000000003	0.8193772128228218	-0.5708354779407806	0.0	0.7754342871763805	-0.5773195039708022	0.0	0.7753722203906159	-0.7466622308139171	0.0	0.7815993595695611	-0.9042497926511613	0.0	0.774697604321926	-0.9482305657632452	0.0	0.7555033198747292	-0.9414627763216034	0.0	0.7863813312188355	-0.9215884929418093	0.0	0.8641300795321883	-0.5709260133051117	0.0	0.9069806831083733	-0.7175519973377716	0.0	0.9023382733478973	-0.9052833921349077	0.0	0.9272356032622293	-0.9580854915570433	0.0	0.9452212974396603	-0.9497890765405521	0.0	0.8901225289436759	-0.9276705073593411	0.0	0.793098205946214	-0.3017137373913343	0.0	0.7837619157976747	-0.18540700939941232	0.0	0.7888305726538278	-0.2525642455427729	0.0	0.7184195043076905	-0.3536926440496523	0.0	0.6947371059500831	-0.47014291113412643	0.0	0.682574112563774	-0.5692747348824533	0.0	0.8770843810703001	-0.3444244797910148	0.0	0.9029794932177998	-0.4628248464177609	0.0	0.9249415283427215	-0.5707317819213718	0.0
65	2.184	0.8201820167157277	-0.5709023833601439	0.0	0.7759060479663326	-0.5769413605879153	0.0	0.7755387012573448	-0.7477096467860771	0.0	0.7813889162494764	-0.9044515140750534	0.0	0.7748984194395016	-0.9489760759940971	0.0	0.7551727987567677	-0.9415362575209434	0.0	0.7865062475537337	-0.9209799055451712	0.0	0.8654522487002376	-0.5716257329463759	0.0	0.9055621795588428	-0.7222635226973417	0.0	0.9053624231369125	-0.9177960209139757	0.0	0.9308343136335618	-0.968778024362434	0.0	0.9488542402619478	-0.9610693159660353	0.0	0.8931100147269972	-0.9404870596743324	0.0	0.7979335418479162	-0.2995632760349421	0.0	0.7914173404314561	-0.18270414441216834	0.0	0.7937885731672912	-0.250270824004448	0.0	0.7215225317611687	-0.35048926889344967	0.0	0.6958385500612453	-0.4675700975192598	0.0	0.6820203369934016	-0.5666270411885895	0.0	0.8817346843616548	-0.34368468706460453	0.0	0.9054422429300316	-0.4634463506340041	0.0	0.9244493564091197	-0.5737375308582661	0.0
66	2.2176000000000005	0.8214913870101054	-0.5712225827523336	0.0	0.7770429516837926	-0.5768944193514602	0.0	0.7756464819443185	-0.7490497497418047	0.0	0.780877889227985	-0.9040464882791521	0.0	0.7749289906526878	-0.9494386714230924	0.0	0.7546313127443804	-0.9409637668219561	0.0	0.7863298535350286	-0.9195510937215978	0.0	0.8673208964124108	-0.5726943493009159	0.0	0.9040327815264716	-0.7278395734674084	0.0	0.9066421638001901	-0.9280788667567288	0.0	0.9315832398499724	-0.9781854559122444	0.0	0.9501812413918681	-0.9709431950741938	0.0	0.894708518842029	-0.9505286545652849	0.0	0.8041174389575295	-0.297126800128371	0.0	0.8003926415655284	-0.1795241710882185	0.0	0.8002016861069199	-0.24772659792774746	0.0	0.7260588207109616	-0.3473036484055989	0.0	0.6978717488389461	-0.46490885456063974	0.0	0.6820883267497331	-0.5637163162284586	0.0	0.8875946641222312	-0.34303948701890385	0.0	0.9090597609076126	-0.46415350235077385	0.0	0.9257278049972856	-0.5768088186919984	0.0
67	2.2512000000000003	0.8235461409119297	-0.5715202305339409	0.0	0.7789608574987761	-0.576804759818492	0.0	0.7756588293848762	-0.7505687961912957	0.0	0.780075125118367	-0.9027217750730591	0.0	0.7748027516534554	-0.949683628905531	0.0	0.7539064740415484	-0.9398667030005285	0.0	0.785847184590624	-0.916907786351066	0.0	0.869917497382015	-0.5737599299903127	0.0	0.9028065161045682	-0.7335241341492825	0.0	0.9066976372351071	-0.9362295162015136	0.0	0.9301184118995878	-0.98661614474549	0.0	0.9498196097396538	-0.9796214823430139	0.0	0.8953647805399622	-0.9579485867919131	0.0	0.8115985259636213	-0.29407827535061104	0.0	0.8106868003852381	-0.1755654547587677	0.0	0.8080971219405334	-0.24445465048513235	0.0	0.731888619445846	-0.34366372141782087	0.0	0.7008134171393452	-0.46187943307380264	0.0	0.6828728256113509	-0.5605912813419203	0.0	0.8946495142259203	-0.34230334362495546	0.0	0.9138406632703492	-0.46490075992995605	0.0	0.9290045969926701	-0.5796976623778807	0.0
68	2.2848	0.8265050162270408	-0.5715343327544951	0.0	0.7816543640798735	-0.5763396492352003	0.0	0.7754166952977845	-0.7521550609204106	0.0	0.7790134019643791	-0.9002197126700192	0.0	0.7745155256173366	-0.9497212777671304	0.0	0.7530297549422604	-0.9383757983610875	0.0	0.7851958353321314	-0.912753006793376	0.0	0.8733520792849544	-0.5745014868435467	0.0	0.9022320732860036	-0.738700334291338	0.0	0.9062244182602021	-0.942430814539726	0.0	0.9274966746919477	-0.9942629993298285	0.0	0.9486647509867923	-0.9872019990521894	0.0	0.8956503239790394	-0.9630881684314967	0.0	0.8201618116218192	-0.2902732540562617	0.0	0.822117580506558	-0.17074913647512766	0.0	0.8173387035549744	-0.24022514494658198	0.0	0.7386658422969841	-0.3392082270900715	0.0	0.7045545846293471	-0.45827691212767735	0.0	0.6844037482487688	-0.5574927704298797	0.0	0.9026792091997462	-0.3412595369053029	0.0	0.9196873192739973	-0.46557409954105716	0.0	0.9341647293243616	-0.5821721073243183	0.0
69	2.3184000000000005	0.8303366938433	-0.5711224571491739	0.0	0.7849713399496334	-0.5753360331087045	0.0	0.7747170959195091	-0.753722663444529	0.0	0.7778507462905065	-0.8962987674128756	0.0	0.7740802957898473	-0.9494497277127915	0.0	0.7520485096522316	-0.9365214450443008	0.0	0.7846692374403113	-0.9068791021670721	0.0	0.8775833017357507	-0.5747592216716866	0.0	0.9025180515497606	-0.7431008127500869	0.0	0.9057379589339545	-0.946956167461765	0.0	0.9246900330119432	-1.0012007268165215	0.0	0.9474908070302435	-0.9937339147603795	0.0	0.8959097821263187	-0.9665333516135062	0.0	0.8294394621291555	-0.28576991669651325	0.0	0.8342096292546058	-0.16518862257100958	0.0	0.8275813528737566	-0.23513555090045718	0.0	0.7459506098506256	-0.3338727047441679	0.0	0.7088822049589935	-0.4540261743072865	0.0	0.6866306924860628	-0.5546707836932	0.0	0.9113057630756105	-0.3396708476230017	0.0	0.926418008373409	-0.465913421372307	0.0	0.9408636166178196	-0.5839356219034154	0.0
70	2.3520000000000003	0.8347785226842821	-0.5702971613164346	0.0	0.7886149146243088	-0.5738192934321339	0.0	0.7734512433420776	-0.7552961162741373	0.0	0.776935226480869	-0.8908210370067867	0.0	0.773626452627616	-0.9486804609184255	0.0	0.7510979921650749	-0.9342084404593985	0.0	0.7846483342958425	-0.8992026012284852	0.0	0.8823643647774913	-0.5745553785495724	0.0	0.9036311610065908	-0.7468305367392616	0.0	0.9054844431624561	-0.950204266403858	0.0	0.9222844066781902	-1.0073936674743391	0.0	0.9467260409354916	-0.9992871860502527	0.0	0.8962334749236233	-0.9690293408575243	0.0	0.8389628973723384	-0.2807742013323039	0.0	0.8462407653285167	-0.15911656057329374	0.0	0.8382536060154587	-0.22947208466139507	0.0	0.7533178306719123	-0.3278962580179661	0.0	0.7135295573165429	-0.449285674043462	0.0	0.6894775149800997	-0.5522452983573417	0.0	0.9201080339224702	-0.3374082085206895	0.0	0.9338314520140157	-0.46564516311350773	0.0	0.9486595095058934	-0.5846607295903797	0.0
71	2.3856	0.839384003504789	-0.5691231742201294	0.0	0.7922049098509121	-0.5718715615745293	0.0	0.7716896643481528	-0.7569870048157334	0.0	0.7767446553550424	-0.884059719528442	0.0	0.7733604481216229	-0.9473601682383166	0.0	0.7503786726454701	-0.931448218799003	0.0	0.7854895216993486	-0.8900970619690141	0.0	0.8872734674615571	-0.5739579520304945	0.0	0.9053514716902867	-0.7500964674440367	0.0	0.9055540946810607	-0.9525599561770904	0.0	0.920475345359404	-1.0126161436305068	0.0	0.9464465754557866	-1.003844115890403	0.0	0.8966326002926421	-0.9711692111019019	0.0	0.8482217000837986	-0.27555684238081335	0.0	0.8574881365988821	-0.15281891373085232	0.0	0.8486729996649852	-0.22355556255473322	0.0	0.7604214806674938	-0.32163708867780344	0.0	0.7182690248848971	-0.44443627254208823	0.0	0.6928809648392857	-0.5502014914486753	0.0	0.9287220916533072	-0.33457296822282595	0.0	0.9417306609986663	-0.4646963390600976	0.0	0.9571376836094507	-0.5841752913873859	0.0
72	2.4192000000000005	0.8436663221381316	-0.5676156389466236	0.0	0.795380632710223	-0.5694903997129211	0.0	0.7696837152144392	-0.7588082009832224	0.0	0.7776851274816952	-0.8770045897656418	0.0	0.7733565302836666	-0.9458979296154285	0.0	0.7500314216184798	-0.9287126031159038	0.0	0.7874349440351185	-0.8808159878246978	0.0	0.8918628272702958	-0.5729296301360266	0.0	0.9074493077000517	-0.7529794999920693	0.0	0.9059708122382342	-0.9542469346730243	0.0	0.9192227195794372	-1.0165535952578697	0.0	0.9465064145902399	-1.007290830125666	0.0	0.8971303133036201	-0.9731680997650979	0.0	0.8567174850210245	-0.27035669209888474	0.0	0.867444554967418	-0.14655460521409439	0.0	0.8582131514380054	-0.21765828727994999	0.0	0.7669630776988398	-0.31537893049655186	0.0	0.7229654854425993	-0.43986593698155085	0.0	0.6967841126099658	-0.5484701212613803	0.0	0.9368496671202493	-0.3313964601029283	0.0	0.949879924914807	-0.46318655875261416	0.0	0.9660342116297648	-0.5825384272351678	0.0
